g techo_artificial_boceto
v 4.135 0.865 4.6122 0.627451 0.627451 0.643137
v 4.135 -5.14 4.6122 0.627451 0.627451 0.643137
v 0.787 -5.14 4.6122 0.627451 0.627451 0.643137
v 0.787 0.865 4.6122 0.627451 0.627451 0.643137
v 0.787 -5.14 4.7472 0.627451 0.627451 0.643137
v 4.135 -5.14 4.7472 0.627451 0.627451 0.643137
v 4.135 0.865 4.7472 0.627451 0.627451 0.643137
v 0.787 0.865 4.7472 0.627451 0.627451 0.643137
vn -0 -0 -1
vn 5.30573e-16 -1 0
vn 0 0 1
vn -1 0 0
vn -5.18311e-16 1 0
vn 1 0 -0
vt 4.135 0.865
vt 4.135 -5.14
vt 0.787 -5.14
vt 0.787 0.865
vt -1.674 0
vt -1.674 -0.135
vt 1.674 -0.135
vt 1.674 0
vt 0.787 -5.14
vt 4.135 -5.14
vt 4.135 0.865
vt 0.787 0.865
vt 0 2.935
vt -0.135 2.935
vt -0.135 -3.07
vt 0 -3.07
vt -1.6065 0
vt -1.6065 -0.135
vt 1.7415 -0.135
vt 1.7415 0
vt -0 -0.0675
vt 0.135 -0.0675
vt 0.135 5.9375
vt 0 5.9375
f 1/1/1 2/2/1 3/3/1
f 3/3/1 4/4/1 1/1/1
f 5/5/2 3/6/2 2/7/2
f 2/7/2 6/8/2 5/5/2
f 5/9/3 6/10/3 7/11/3
f 7/11/3 8/12/3 5/9/3
f 8/13/4 4/14/4 3/15/4
f 3/15/4 5/16/4 8/13/4
f 7/17/5 1/18/5 4/19/5
f 4/19/5 8/20/5 7/17/5
f 6/21/6 2/22/6 1/23/6
f 1/23/6 7/24/6 6/21/6
