g pared_artificial_atras
v 0.787 -5.005 4.6121 0.627451 0.627451 0.643137
v 4.135 -5.005 4.6121 0.627451 0.627451 0.643137
v 4.135 -5.005 0 0.627451 0.627451 0.643137
v 0.787 -5.005 -8.88178e-16 0.627451 0.627451 0.643137
v 0.787 -5.14 -8.88178e-16 0.627451 0.627451 0.643137
v 4.135 -5.14 0 0.627451 0.627451 0.643137
v 4.135 -5.14 4.6121 0.627451 0.627451 0.643137
v 0.787 -5.14 4.6121 0.627451 0.627451 0.643137
vn -0 1 -0
vn 2.65286e-16 0 -1
vn 0 -1 0
vn -1 -0 -1.92576e-16
vn -2.65286e-16 0 1
vn 1 0 1.92576e-16
vt 0.787 4.6121
vt 4.135 4.6121
vt 4.135 0
vt 0.787 -8.88178e-16
vt 1.674 0
vt 1.674 0.135
vt -1.674 0.135
vt -1.674 0
vt 4.135 0
vt 4.135 4.6121
vt 0.787 4.6121
vt 0.787 -8.88178e-16
vt 2.30605 0
vt 2.30605 0.135
vt -2.30605 0.135
vt -2.30605 0
vt 1.674 0
vt 1.674 0.135
vt -1.674 0.135
vt -1.674 0
vt 2.30605 0
vt 2.30605 0.135
vt -2.30605 0.135
vt -2.30605 0
f 1/1/1 2/2/1 3/3/1
f 3/3/1 4/4/1 1/1/1
f 5/5/2 4/6/2 3/7/2
f 3/7/2 6/8/2 5/5/2
f 6/9/3 7/10/3 8/11/3
f 8/11/3 5/12/3 6/9/3
f 8/13/4 1/14/4 4/15/4
f 4/15/4 5/16/4 8/13/4
f 7/17/5 2/18/5 1/19/5
f 1/19/5 8/20/5 7/17/5
f 6/21/6 3/22/6 2/23/6
f 2/23/6 7/24/6 6/21/6
